<svg version="1.1" xmlns="http://www.w3.org/2000/svg" xmlns:xlink="http://www.w3.org/1999/xlink" preserveAspectRatio="xMidYMid meet" viewBox="0 0 640 640" width="640" height="640"><defs><path d="M437.7 216.3C442.74 216.3 446.84 220.39 446.84 225.44C446.84 275.9 446.84 418.16 446.84 468.63C446.84 473.68 442.74 477.77 437.7 477.77C381.98 477.77 223.98 477.77 168.27 477.77C163.22 477.77 159.13 473.68 159.13 468.63C159.13 418.16 159.13 275.9 159.13 225.44C159.13 220.39 163.22 216.3 168.27 216.3C223.98 216.3 381.98 216.3 437.7 216.3Z" id="aojRDWL06"></path><path d="M381.33 95.78L382.53 96.15L383.69 96.6L384.82 97.12L385.91 97.71L386.95 98.37L387.95 99.09L388.89 99.87L389.79 100.71L390.63 101.61L391.41 102.55L392.13 103.55L392.79 104.59L393.38 105.68L393.9 106.81L394.35 107.97L394.72 109.17L395.02 110.41L395.23 111.67L395.37 112.96L395.41 114.27L395.37 115.58L395.23 116.87L395.02 118.13L394.72 119.37L394.35 120.57L393.9 121.73L393.38 122.86L392.79 123.95L392.13 124.99L391.41 125.99L390.63 126.93L389.79 127.83L388.89 128.67L387.95 129.45L386.95 130.17L385.91 130.83L384.82 131.42L383.69 131.94L382.53 132.39L381.59 132.68L381.59 241.25L370.87 241.25L370.87 132.68L369.93 132.39L368.77 131.94L367.64 131.42L366.55 130.83L365.51 130.17L364.51 129.45L363.56 128.67L362.67 127.83L361.83 126.93L361.05 125.99L360.33 124.99L359.67 123.95L359.08 122.86L358.56 121.73L358.11 120.57L357.73 119.37L357.44 118.13L357.22 116.87L357.09 115.58L357.05 114.27L357.09 112.96L357.22 111.67L357.44 110.41L357.73 109.17L358.11 107.97L358.56 106.81L359.08 105.68L359.67 104.59L360.33 103.55L361.05 102.55L361.83 101.61L362.67 100.71L363.56 99.87L364.51 99.09L365.51 98.37L366.55 97.71L367.64 97.12L368.77 96.6L369.93 96.15L371.13 95.78L372.37 95.48L373.63 95.26L374.92 95.13L376.23 95.09L377.54 95.13L378.83 95.26L380.09 95.48L380.09 95.48L381.33 95.78Z" id="b3JKVzo7"></path><path d="M206.66 495.16L173.89 462.38" id="e8u9y78qGI"></path><path d="M271.82 97.82L273.02 98.2L274.18 98.65L275.31 99.17L276.4 99.76L277.44 100.42L278.44 101.14L279.39 101.92L280.28 102.76L281.12 103.65L281.9 104.6L282.62 105.6L283.28 106.64L283.87 107.73L284.39 108.86L284.84 110.02L285.22 111.22L285.51 112.46L285.73 113.72L285.86 115.01L285.9 116.32L285.86 117.63L285.73 118.92L285.51 120.18L285.22 121.42L284.84 122.62L284.39 123.78L283.87 124.91L283.28 126L282.62 127.04L281.9 128.04L281.12 128.98L280.28 129.88L279.39 130.72L278.44 131.5L277.44 132.22L276.4 132.88L275.31 133.47L274.18 133.99L273.02 134.44L272.08 134.73L272.08 243.3L261.36 243.3L261.36 134.73L260.42 134.44L259.26 133.99L258.13 133.47L257.04 132.88L256 132.22L255 131.5L254.06 130.72L253.16 129.88L252.32 128.98L251.54 128.04L250.82 127.04L250.16 126L249.57 124.91L249.05 123.78L248.6 122.62L248.23 121.42L247.93 120.18L247.72 118.92L247.59 117.63L247.54 116.32L247.59 115.01L247.72 113.72L247.93 112.46L248.23 111.22L248.6 110.02L249.05 108.86L249.57 107.73L250.16 106.64L250.82 105.6L251.54 104.6L252.32 103.65L253.16 102.76L254.06 101.92L255 101.14L256 100.42L257.04 99.76L258.13 99.17L259.26 98.65L260.42 98.2L261.62 97.82L262.86 97.53L264.12 97.31L265.41 97.18L266.72 97.14L268.03 97.18L269.32 97.31L270.58 97.53L270.58 97.53L271.82 97.82Z" id="g2qmewGzv"></path><path d="M463.22 262.39L430.45 229.61" id="a2fa9JBzNx"></path><path d="M467.07 243.3C472.18 243.3 476.33 247.44 476.33 252.56C476.33 303.7 476.33 447.86 476.33 499C476.33 504.11 472.18 508.26 467.07 508.26C410.88 508.26 251.58 508.26 195.39 508.26C190.28 508.26 186.13 504.11 186.13 499C186.13 447.86 186.13 303.7 186.13 252.56C186.13 247.44 190.28 243.3 195.39 243.3C251.58 243.3 410.88 243.3 467.07 243.3Z" id="anUWghHLF"></path><path d="M471.19 249.75C476.24 249.75 480.33 253.85 480.33 258.89C480.33 309.36 480.33 451.62 480.33 502.09C480.33 507.14 476.24 511.23 471.19 511.23C415.47 511.23 257.48 511.23 201.76 511.23C196.72 511.23 192.62 507.14 192.62 502.09C192.62 451.62 192.62 309.36 192.62 258.89C192.62 253.85 196.72 249.75 201.76 249.75C257.48 249.75 415.47 249.75 471.19 249.75Z" id="c1Wh0HiQVb"></path><path d="M437.21 392.56C442.73 392.56 447.21 397.04 447.21 402.56C447.21 417.94 447.21 454.06 447.21 469.44C447.21 474.96 442.73 479.44 437.21 479.44C394.91 479.44 278.04 479.44 235.75 479.44C230.22 479.44 225.74 474.96 225.74 469.44C225.74 454.06 225.74 417.94 225.74 402.56C225.74 397.04 230.22 392.56 235.75 392.56C278.04 392.56 394.91 392.56 437.21 392.56Z" id="gfJfzAYq"></path><path d="M431.61 398.7C436.83 398.7 441.07 402.94 441.07 408.16C441.07 421.18 441.07 450.82 441.07 463.84C441.07 469.06 436.83 473.3 431.61 473.3C391.67 473.3 281.28 473.3 241.34 473.3C236.12 473.3 231.89 469.06 231.89 463.84C231.89 450.82 231.89 421.18 231.89 408.16C231.89 402.94 236.12 398.7 241.34 398.7C281.28 398.7 391.67 398.7 431.61 398.7Z" id="i2Pp5T6qPh"></path><path d="M306.87 438.35L307.49 438.49L308.1 438.67L308.68 438.89L309.25 439.14L309.8 439.43L310.33 439.74L310.84 440.09L311.32 440.47L311.79 440.88L312.22 441.31L312.63 441.77L313.01 442.26L313.35 442.77L313.67 443.3L313.96 443.85L314.21 444.42L314.42 445L314.6 445.61L314.75 446.23L314.85 446.86L314.91 447.51L314.93 448.16L314.93 476.44L279.69 476.44L279.69 448.16L279.71 447.51L279.77 446.86L279.88 446.23L280.02 445.61L280.2 445L280.41 444.42L280.67 443.85L280.95 443.3L281.27 442.77L281.62 442.26L282 441.77L282.4 441.31L282.84 440.88L283.3 440.47L283.78 440.09L284.29 439.74L284.82 439.43L285.37 439.14L285.94 438.89L286.53 438.67L287.13 438.49L287.75 438.35L288.38 438.25L289.03 438.19L289.69 438.16L304.93 438.16L305.59 438.19L306.24 438.25L306.24 438.25L306.87 438.35ZM346.17 438.35L346.79 438.49L347.39 438.67L347.98 438.89L348.55 439.14L349.1 439.43L349.63 439.74L350.14 440.09L350.62 440.47L351.08 440.88L351.51 441.31L351.92 441.77L352.3 442.26L352.65 442.77L352.97 443.3L353.25 443.85L353.5 444.42L353.72 445L353.9 445.61L354.04 446.23L354.15 446.86L354.21 447.51L354.23 448.16L354.23 476.44L318.98 476.44L318.98 448.16L319 447.51L319.07 446.86L319.17 446.23L319.31 445.61L319.49 445L319.71 444.42L319.96 443.85L320.25 443.3L320.56 442.77L320.91 442.26L321.29 441.77L321.7 441.31L322.13 440.88L322.59 440.47L323.08 440.09L323.59 439.74L324.12 439.43L324.67 439.14L325.24 438.89L325.82 438.67L326.43 438.49L327.05 438.35L327.68 438.25L328.33 438.19L328.98 438.16L344.23 438.16L344.89 438.19L345.53 438.25L345.53 438.25L346.17 438.35ZM385.31 438.35L385.93 438.49L386.54 438.67L387.13 438.89L387.69 439.14L388.25 439.43L388.78 439.74L389.28 440.09L389.77 440.47L390.23 440.88L390.66 441.31L391.07 441.77L391.45 442.26L391.8 442.77L392.11 443.3L392.4 443.85L392.65 444.42L392.87 445L393.05 445.61L393.19 446.23L393.29 446.86L393.36 447.51L393.38 448.16L393.38 476.44L358.13 476.44L358.13 448.16L358.15 447.51L358.22 446.86L358.32 446.23L358.46 445.61L358.64 445L358.86 444.42L359.11 443.85L359.39 443.3L359.71 442.77L360.06 442.26L360.44 441.77L360.85 441.31L361.28 440.88L361.74 440.47L362.23 440.09L362.73 439.74L363.26 439.43L363.81 439.14L364.38 438.89L364.97 438.67L365.57 438.49L366.19 438.35L366.83 438.25L367.47 438.19L368.13 438.16L383.38 438.16L384.03 438.19L384.68 438.25L384.68 438.25L385.31 438.35ZM267.89 438.35L268.51 438.49L269.11 438.67L269.7 438.89L270.27 439.14L270.82 439.43L271.35 439.74L271.86 440.09L272.34 440.47L272.8 440.88L273.24 441.31L273.64 441.77L274.02 442.26L274.37 442.77L274.69 443.3L274.97 443.85L275.22 444.42L275.44 445L275.62 445.61L275.76 446.23L275.87 446.86L275.93 447.51L275.95 448.16L275.95 476.44L240.7 476.44L240.7 448.16L240.73 447.51L240.79 446.86L240.89 446.23L241.03 445.61L241.21 445L241.43 444.42L241.68 443.85L241.97 443.3L242.29 442.77L242.63 442.26L243.01 441.77L243.42 441.31L243.85 440.88L244.31 440.47L244.8 440.09L245.31 439.74L245.84 439.43L246.39 439.14L246.96 438.89L247.54 438.67L248.15 438.49L248.77 438.35L249.4 438.25L250.05 438.19L250.7 438.16L265.95 438.16L266.61 438.19L267.25 438.25L267.25 438.25L267.89 438.35ZM424.2 438.35L424.82 438.49L425.42 438.67L426.01 438.89L426.58 439.14L427.13 439.43L427.66 439.74L428.17 440.09L428.65 440.47L429.11 440.88L429.55 441.31L429.95 441.77L430.33 442.26L430.68 442.77L431 443.3L431.28 443.85L431.54 444.42L431.75 445L431.93 445.61L432.07 446.23L432.18 446.86L432.24 447.51L432.26 448.16L432.26 476.44L397.02 476.44L397.02 448.16L397.04 447.51L397.1 446.86L397.2 446.23L397.35 445.61L397.53 445L397.74 444.42L397.99 443.85L398.28 443.3L398.6 442.77L398.95 442.26L399.32 441.77L399.73 441.31L400.17 440.88L400.63 440.47L401.11 440.09L401.62 439.74L402.15 439.43L402.7 439.14L403.27 438.89L403.86 438.67L404.46 438.49L405.08 438.35L405.71 438.25L406.36 438.19L407.02 438.16L422.26 438.16L422.92 438.19L423.57 438.25L423.57 438.25L424.2 438.35Z" id="d2BcHrx25g"></path><path d="M314.29 425.64L314.23 426.29L314.12 426.92L313.98 427.54L313.8 428.14L313.59 428.73L313.33 429.3L313.05 429.85L312.73 430.38L312.38 430.89L312 431.37L311.6 431.83L311.16 432.27L310.7 432.68L310.22 433.05L309.71 433.4L309.18 433.72L308.63 434.01L308.06 434.26L307.47 434.47L306.87 434.65L306.25 434.8L305.62 434.9L304.97 434.96L304.31 434.98L289.07 434.98L288.41 434.96L287.76 434.9L287.13 434.8L286.51 434.65L285.9 434.47L285.32 434.26L284.75 434.01L284.2 433.72L283.67 433.4L283.16 433.05L282.68 432.68L282.21 432.27L281.78 431.83L281.37 431.37L280.99 430.89L280.65 430.38L280.33 429.85L280.04 429.3L279.79 428.73L279.58 428.14L279.4 427.54L279.25 426.92L279.15 426.29L279.09 425.64L279.07 424.98L279.07 396.7L314.31 396.7L314.31 424.98L314.29 425.64ZM275.31 425.64L275.24 426.29L275.14 426.92L275 427.54L274.82 428.14L274.6 428.73L274.35 429.3L274.06 429.85L273.75 430.38L273.4 430.89L273.02 431.37L272.61 431.83L272.18 432.27L271.72 432.68L271.23 433.05L270.73 433.4L270.2 433.72L269.65 434.01L269.08 434.26L268.49 434.47L267.88 434.65L267.26 434.8L266.63 434.9L265.99 434.96L265.33 434.98L250.08 434.98L249.42 434.96L248.78 434.9L248.14 434.8L247.53 434.65L246.92 434.47L246.33 434.26L245.76 434.01L245.21 433.72L244.68 433.4L244.18 433.05L243.69 432.68L243.23 432.27L242.8 431.83L242.39 431.37L242.01 430.89L241.66 430.38L241.34 429.85L241.06 429.3L240.81 428.73L240.59 428.14L240.41 427.54L240.27 426.92L240.17 426.29L240.1 425.64L240.08 424.98L240.08 396.7L275.33 396.7L275.33 424.98L275.31 425.64ZM353.59 425.64L353.52 426.29L353.42 426.92L353.28 427.54L353.1 428.14L352.88 428.73L352.63 429.3L352.34 429.85L352.03 430.38L351.68 430.89L351.3 431.37L350.89 431.83L350.46 432.27L350 432.68L349.51 433.05L349 433.4L348.47 433.72L347.92 434.01L347.35 434.26L346.77 434.47L346.16 434.65L345.54 434.8L344.91 434.9L344.26 434.96L343.61 434.98L328.36 434.98L327.7 434.96L327.06 434.9L326.42 434.8L325.8 434.65L325.2 434.47L324.61 434.26L324.04 434.01L323.49 433.72L322.96 433.4L322.45 433.05L321.97 432.68L321.51 432.27L321.08 431.83L320.67 431.37L320.29 430.89L319.94 430.38L319.62 429.85L319.34 429.3L319.09 428.73L318.87 428.14L318.69 427.54L318.55 426.92L318.44 426.29L318.38 425.64L318.36 424.98L318.36 396.7L353.61 396.7L353.61 424.98L353.59 425.64ZM392.73 425.64L392.67 426.29L392.57 426.92L392.42 427.54L392.24 428.14L392.03 428.73L391.78 429.3L391.49 429.85L391.17 430.38L390.82 430.89L390.45 431.37L390.04 431.83L389.6 432.27L389.14 432.68L388.66 433.05L388.15 433.4L387.62 433.72L387.07 434.01L386.5 434.26L385.91 434.47L385.31 434.65L384.69 434.8L384.06 434.9L383.41 434.96L382.75 434.98L367.51 434.98L366.85 434.96L366.2 434.9L365.57 434.8L364.95 434.65L364.35 434.47L363.76 434.26L363.19 434.01L362.64 433.72L362.11 433.4L361.6 433.05L361.12 432.68L360.66 432.27L360.22 431.83L359.82 431.37L359.44 430.89L359.09 430.38L358.77 429.85L358.49 429.3L358.23 428.73L358.02 428.14L357.84 427.54L357.7 426.92L357.59 426.29L357.53 425.64L357.51 424.98L357.51 396.7L392.75 396.7L392.75 424.98L392.73 425.64ZM431.62 425.64L431.56 426.29L431.45 426.92L431.31 427.54L431.13 428.14L430.91 428.73L430.66 429.3L430.38 429.85L430.06 430.38L429.71 430.89L429.33 431.37L428.92 431.83L428.49 432.27L428.03 432.68L427.55 433.05L427.04 433.4L426.51 433.72L425.96 434.01L425.39 434.26L424.8 434.47L424.2 434.65L423.58 434.8L422.94 434.9L422.3 434.96L421.64 434.98L406.39 434.98L405.74 434.96L405.09 434.9L404.46 434.8L403.84 434.65L403.23 434.47L402.65 434.26L402.08 434.01L401.53 433.72L401 433.4L400.49 433.05L400 432.68L399.54 432.27L399.11 431.83L398.7 431.37L398.32 430.89L397.97 430.38L397.66 429.85L397.37 429.3L397.12 428.73L396.9 428.14L396.72 427.54L396.58 426.92L396.48 426.29L396.41 425.64L396.39 424.98L396.39 396.7L431.64 396.7L431.64 424.98L431.62 425.64Z" id="b2O3snVb6S"></path><path d="M318.36 328.21C318.36 353.77 297.61 374.52 272.05 374.52C246.49 374.52 225.74 353.77 225.74 328.21C225.74 302.65 246.49 281.9 272.05 281.9C297.61 281.9 318.36 302.65 318.36 328.21Z" id="a1gmYGI0Y5"></path><path d="M447.21 328.21C447.21 353.77 426.46 374.52 400.9 374.52C375.34 374.52 354.59 353.77 354.59 328.21C354.59 302.65 375.34 281.9 400.9 281.9C426.46 281.9 447.21 302.65 447.21 328.21Z" id="bzdMsCZsQ"></path><path d="M430 336C430 345.05 422.84 352.39 414.02 352.39C405.19 352.39 398.03 345.05 398.03 336C398.03 326.95 405.19 319.61 414.02 319.61C422.84 319.61 430 326.95 430 336Z" id="btKa7YwsY"></path><path d="M298.69 336C298.69 345.05 291.53 352.39 282.7 352.39C273.88 352.39 266.72 345.05 266.72 336C266.72 326.95 273.88 319.61 282.7 319.61C291.53 319.61 298.69 326.95 298.69 336Z" id="b3bxTnm77"></path></defs><g><g><g><use xlink:href="#aojRDWL06" opacity="1" fill="#000000" fill-opacity="1"></use></g><g><use xlink:href="#b3JKVzo7" opacity="1" fill="#000000" fill-opacity="1"></use></g><g><g><use xlink:href="#e8u9y78qGI" opacity="1" fill-opacity="0" stroke="#000000" stroke-width="35" stroke-opacity="1"></use></g></g><g><use xlink:href="#g2qmewGzv" opacity="1" fill="#000000" fill-opacity="1"></use></g><g><g><use xlink:href="#a2fa9JBzNx" opacity="1" fill-opacity="0" stroke="#000000" stroke-width="35" stroke-opacity="1"></use></g></g><g><use xlink:href="#anUWghHLF" opacity="1" fill="#ffffff" fill-opacity="1"></use></g><g><use xlink:href="#c1Wh0HiQVb" opacity="1" fill="#000000" fill-opacity="1"></use></g><g><use xlink:href="#gfJfzAYq" opacity="1" fill="#ffffff" fill-opacity="1"></use></g><g><use xlink:href="#i2Pp5T6qPh" opacity="1" fill="#000000" fill-opacity="1"></use></g><g><use xlink:href="#d2BcHrx25g" opacity="1" fill="#ffffff" fill-opacity="1"></use></g><g><use xlink:href="#b2O3snVb6S" opacity="1" fill="#ffffff" fill-opacity="1"></use></g><g><use xlink:href="#a1gmYGI0Y5" opacity="1" fill="#ffffff" fill-opacity="1"></use></g><g><use xlink:href="#bzdMsCZsQ" opacity="1" fill="#ffffff" fill-opacity="1"></use></g><g><use xlink:href="#btKa7YwsY" opacity="1" fill="#000000" fill-opacity="1"></use></g><g><use xlink:href="#b3bxTnm77" opacity="1" fill="#000000" fill-opacity="1"></use></g></g></g></svg>