<?xml version="1.0" encoding="UTF-8"?>
<svg width="321.2" height="416.14" version="1.1" viewBox="0 0 321.2 416.14" xmlns="http://www.w3.org/2000/svg" xmlns:cc="http://creativecommons.org/ns#" xmlns:dc="http://purl.org/dc/elements/1.1/" xmlns:rdf="http://www.w3.org/1999/02/22-rdf-syntax-ns#" xmlns:xlink="http://www.w3.org/1999/xlink">
 <metadata>
  <rdf:RDF>
   <cc:Work rdf:about="">
    <dc:format>image/svg+xml</dc:format>
    <dc:type rdf:resource="http://purl.org/dc/dcmitype/StillImage"/>
    <dc:title/>
   </cc:Work>
  </rdf:RDF>
 </metadata>
 <defs>
  <path id="aojRDWL06" d="m437.7 216.3c5.04 0 9.14 4.09 9.14 9.14v243.19c0 5.05-4.1 9.14-9.14 9.14h-269.43c-5.05 0-9.14-4.09-9.14-9.14v-243.19c0-5.05 4.09-9.14 9.14-9.14h269.43z"/>
  <path id="b3JKVzo7" d="m381.33 95.78 1.2 0.37 1.16 0.45 1.13 0.52 1.09 0.59 1.04 0.66 1 0.72 0.94 0.78 0.9 0.84 0.84 0.9 0.78 0.94 0.72 1 0.66 1.04 0.59 1.09 0.52 1.13 0.45 1.16 0.37 1.2 0.3 1.24 0.21 1.26 0.14 1.29 0.04 1.31-0.04 1.31-0.14 1.29-0.21 1.26-0.3 1.24-0.37 1.2-0.45 1.16-0.52 1.13-0.59 1.09-0.66 1.04-0.72 1-0.78 0.94-0.84 0.9-0.9 0.84-0.94 0.78-1 0.72-1.04 0.66-1.09 0.59-1.13 0.52-1.16 0.45-0.94 0.29v108.57h-10.72v-108.57l-0.94-0.29-1.16-0.45-1.13-0.52-1.09-0.59-1.04-0.66-1-0.72-0.95-0.78-0.89-0.84-0.84-0.9-0.78-0.94-0.72-1-0.66-1.04-0.59-1.09-0.52-1.13-0.45-1.16-0.38-1.2-0.29-1.24-0.22-1.26-0.13-1.29-0.04-1.31 0.04-1.31 0.13-1.29 0.22-1.26 0.29-1.24 0.38-1.2 0.45-1.16 0.52-1.13 0.59-1.09 0.66-1.04 0.72-1 0.78-0.94 0.84-0.9 0.89-0.84 0.95-0.78 1-0.72 1.04-0.66 1.09-0.59 1.13-0.52 1.16-0.45 1.2-0.37 1.24-0.3 1.26-0.22 1.29-0.13 1.31-0.04 1.31 0.04 1.29 0.13 1.26 0.22z"/>
  <path id="e8u9y78qGI" d="m206.66 495.16-32.77-32.78"/>
  <path id="g2qmewGzv" d="m271.82 97.82 1.2 0.38 1.16 0.45 1.13 0.52 1.09 0.59 1.04 0.66 1 0.72 0.95 0.78 0.89 0.84 0.84 0.89 0.78 0.95 0.72 1 0.66 1.04 0.59 1.09 0.52 1.13 0.45 1.16 0.38 1.2 0.29 1.24 0.22 1.26 0.13 1.29 0.04 1.31-0.04 1.31-0.13 1.29-0.22 1.26-0.29 1.24-0.38 1.2-0.45 1.16-0.52 1.13-0.59 1.09-0.66 1.04-0.72 1-0.78 0.94-0.84 0.9-0.89 0.84-0.95 0.78-1 0.72-1.04 0.66-1.09 0.59-1.13 0.52-1.16 0.45-0.94 0.29v108.57h-10.72v-108.57l-0.94-0.29-1.16-0.45-1.13-0.52-1.09-0.59-1.04-0.66-1-0.72-0.94-0.78-0.9-0.84-0.84-0.9-0.78-0.94-0.72-1-0.66-1.04-0.59-1.09-0.52-1.13-0.45-1.16-0.37-1.2-0.3-1.24-0.21-1.26-0.13-1.29-0.05-1.31 0.05-1.31 0.13-1.29 0.21-1.26 0.3-1.24 0.37-1.2 0.45-1.16 0.52-1.13 0.59-1.09 0.66-1.04 0.72-1 0.78-0.95 0.84-0.89 0.9-0.84 0.94-0.78 1-0.72 1.04-0.66 1.09-0.59 1.13-0.52 1.16-0.45 1.2-0.38 1.24-0.29 1.26-0.22 1.29-0.13 1.31-0.04 1.31 0.04 1.29 0.13 1.26 0.22z"/>
  <path id="a2fa9JBzNx" d="m463.22 262.39-32.77-32.78"/>
  <path id="anUWghHLF" d="m467.07 243.3c5.11 0 9.26 4.14 9.26 9.26v246.44c0 5.11-4.15 9.26-9.26 9.26h-271.68c-5.11 0-9.26-4.15-9.26-9.26v-246.44c0-5.12 4.15-9.26 9.26-9.26h271.68z"/>
  <path id="c1Wh0HiQVb" d="m471.19 249.75c5.05 0 9.14 4.1 9.14 9.14v243.2c0 5.05-4.09 9.14-9.14 9.14h-269.43c-5.04 0-9.14-4.09-9.14-9.14v-243.2c0-5.04 4.1-9.14 9.14-9.14h269.43z"/>
  <path id="gfJfzAYq" d="m437.21 392.56c5.52 0 10 4.48 10 10v66.88c0 5.52-4.48 10-10 10h-201.46c-5.53 0-10.01-4.48-10.01-10v-66.88c0-5.52 4.48-10 10.01-10h201.46z"/>
  <path id="i2Pp5T6qPh" d="m431.61 398.7c5.22 0 9.46 4.24 9.46 9.46v55.68c0 5.22-4.24 9.46-9.46 9.46h-190.27c-5.22 0-9.45-4.24-9.45-9.46v-55.68c0-5.22 4.23-9.46 9.45-9.46h190.27z"/>
  <path id="d2BcHrx25g" d="m306.87 438.35 0.62 0.14 0.61 0.18 0.58 0.22 0.57 0.25 0.55 0.29 0.53 0.31 0.51 0.35 0.48 0.38 0.47 0.41 0.43 0.43 0.41 0.46 0.38 0.49 0.34 0.51 0.32 0.53 0.29 0.55 0.25 0.57 0.21 0.58 0.18 0.61 0.15 0.62 0.1 0.63 0.06 0.65 0.02 0.65v28.28h-35.24v-28.28l0.02-0.65 0.06-0.65 0.11-0.63 0.14-0.62 0.18-0.61 0.21-0.58 0.26-0.57 0.28-0.55 0.32-0.53 0.35-0.51 0.38-0.49 0.4-0.46 0.44-0.43 0.46-0.41 0.48-0.38 0.51-0.35 0.53-0.31 0.55-0.29 0.57-0.25 0.59-0.22 0.6-0.18 0.62-0.14 0.63-0.1 0.65-0.06 0.66-0.03h15.24l0.66 0.03 0.65 0.06zm39.3 0 0.62 0.14 0.6 0.18 0.59 0.22 0.57 0.25 0.55 0.29 0.53 0.31 0.51 0.35 0.48 0.38 0.46 0.41 0.43 0.43 0.41 0.46 0.38 0.49 0.35 0.51 0.32 0.53 0.28 0.55 0.25 0.57 0.22 0.58 0.18 0.61 0.14 0.62 0.11 0.63 0.06 0.65 0.02 0.65v28.28h-35.25v-28.28l0.02-0.65 0.07-0.65 0.1-0.63 0.14-0.62 0.18-0.61 0.22-0.58 0.25-0.57 0.29-0.55 0.31-0.53 0.35-0.51 0.38-0.49 0.41-0.46 0.43-0.43 0.46-0.41 0.49-0.38 0.51-0.35 0.53-0.31 0.55-0.29 0.57-0.25 0.58-0.22 0.61-0.18 0.62-0.14 0.63-0.1 0.65-0.06 0.65-0.03h15.25l0.66 0.03 0.64 0.06zm39.14 0 0.62 0.14 0.61 0.18 0.59 0.22 0.56 0.25 0.56 0.29 0.53 0.31 0.5 0.35 0.49 0.38 0.46 0.41 0.43 0.43 0.41 0.46 0.38 0.49 0.35 0.51 0.31 0.53 0.29 0.55 0.25 0.57 0.22 0.58 0.18 0.61 0.14 0.62 0.1 0.63 0.07 0.65 0.02 0.65v28.28h-35.25v-28.28l0.02-0.65 0.07-0.65 0.1-0.63 0.14-0.62 0.18-0.61 0.22-0.58 0.25-0.57 0.28-0.55 0.32-0.53 0.35-0.51 0.38-0.49 0.41-0.46 0.43-0.43 0.46-0.41 0.49-0.38 0.5-0.35 0.53-0.31 0.55-0.29 0.57-0.25 0.59-0.22 0.6-0.18 0.62-0.14 0.64-0.1 0.64-0.06 0.66-0.03h15.25l0.65 0.03 0.65 0.06zm-117.42 0 0.62 0.14 0.6 0.18 0.59 0.22 0.57 0.25 0.55 0.29 0.53 0.31 0.51 0.35 0.48 0.38 0.46 0.41 0.44 0.43 0.4 0.46 0.38 0.49 0.35 0.51 0.32 0.53 0.28 0.55 0.25 0.57 0.22 0.58 0.18 0.61 0.14 0.62 0.11 0.63 0.06 0.65 0.02 0.65v28.28h-35.25v-28.28l0.03-0.65 0.06-0.65 0.1-0.63 0.14-0.62 0.18-0.61 0.22-0.58 0.25-0.57 0.29-0.55 0.32-0.53 0.34-0.51 0.38-0.49 0.41-0.46 0.43-0.43 0.46-0.41 0.49-0.38 0.51-0.35 0.53-0.31 0.55-0.29 0.57-0.25 0.58-0.22 0.61-0.18 0.62-0.14 0.63-0.1 0.65-0.06 0.65-0.03h15.25l0.66 0.03 0.64 0.06zm156.31 0 0.62 0.14 0.6 0.18 0.59 0.22 0.57 0.25 0.55 0.29 0.53 0.31 0.51 0.35 0.48 0.38 0.46 0.41 0.44 0.43 0.4 0.46 0.38 0.49 0.35 0.51 0.32 0.53 0.28 0.55 0.26 0.57 0.21 0.58 0.18 0.61 0.14 0.62 0.11 0.63 0.06 0.65 0.02 0.65v28.28h-35.24v-28.28l0.02-0.65 0.06-0.65 0.1-0.63 0.15-0.62 0.18-0.61 0.21-0.58 0.25-0.57 0.29-0.55 0.32-0.53 0.35-0.51 0.37-0.49 0.41-0.46 0.44-0.43 0.46-0.41 0.48-0.38 0.51-0.35 0.53-0.31 0.55-0.29 0.57-0.25 0.59-0.22 0.6-0.18 0.62-0.14 0.63-0.1 0.65-0.06 0.66-0.03h15.24l0.66 0.03 0.65 0.06z"/>
  <path id="b2O3snVb6S" d="m314.29 425.64-0.06 0.65-0.11 0.63-0.14 0.62-0.18 0.6-0.21 0.59-0.26 0.57-0.28 0.55-0.32 0.53-0.35 0.51-0.38 0.48-0.4 0.46-0.44 0.44-0.46 0.41-0.48 0.37-0.51 0.35-0.53 0.32-0.55 0.29-0.57 0.25-0.59 0.21-0.6 0.18-0.62 0.15-0.63 0.1-0.65 0.06-0.66 0.02h-15.24l-0.66-0.02-0.65-0.06-0.63-0.1-0.62-0.15-0.61-0.18-0.58-0.21-0.57-0.25-0.55-0.29-0.53-0.32-0.51-0.35-0.48-0.37-0.47-0.41-0.43-0.44-0.41-0.46-0.38-0.48-0.34-0.51-0.32-0.53-0.29-0.55-0.25-0.57-0.21-0.59-0.18-0.6-0.15-0.62-0.1-0.63-0.06-0.65-0.02-0.66v-28.28h35.24v28.28zm-38.98 0-0.07 0.65-0.1 0.63-0.14 0.62-0.18 0.6-0.22 0.59-0.25 0.57-0.29 0.55-0.31 0.53-0.35 0.51-0.38 0.48-0.41 0.46-0.43 0.44-0.46 0.41-0.49 0.37-0.5 0.35-0.53 0.32-0.55 0.29-0.57 0.25-0.59 0.21-0.61 0.18-0.62 0.15-0.63 0.1-0.64 0.06-0.66 0.02h-15.25l-0.66-0.02-0.64-0.06-0.64-0.1-0.61-0.15-0.61-0.18-0.59-0.21-0.57-0.25-0.55-0.29-0.53-0.32-0.5-0.35-0.49-0.37-0.46-0.41-0.43-0.44-0.41-0.46-0.38-0.48-0.35-0.51-0.32-0.53-0.28-0.55-0.25-0.57-0.22-0.59-0.18-0.6-0.14-0.62-0.1-0.63-0.07-0.65-0.02-0.66v-28.28h35.25v28.28zm78.28 0-0.07 0.65-0.1 0.63-0.14 0.62-0.18 0.6-0.22 0.59-0.25 0.57-0.29 0.55-0.31 0.53-0.35 0.51-0.38 0.48-0.41 0.46-0.43 0.44-0.46 0.41-0.49 0.37-0.51 0.35-0.53 0.32-0.55 0.29-0.57 0.25-0.58 0.21-0.61 0.18-0.62 0.15-0.63 0.1-0.65 0.06-0.65 0.02h-15.25l-0.66-0.02-0.64-0.06-0.64-0.1-0.62-0.15-0.6-0.18-0.59-0.21-0.57-0.25-0.55-0.29-0.53-0.32-0.51-0.35-0.48-0.37-0.46-0.41-0.43-0.44-0.41-0.46-0.38-0.48-0.35-0.51-0.32-0.53-0.28-0.55-0.25-0.57-0.22-0.59-0.18-0.6-0.14-0.62-0.11-0.63-0.06-0.65-0.02-0.66v-28.28h35.25v28.28zm39.14 0-0.06 0.65-0.1 0.63-0.15 0.62-0.18 0.6-0.21 0.59-0.25 0.57-0.29 0.55-0.32 0.53-0.35 0.51-0.37 0.48-0.41 0.46-0.44 0.44-0.46 0.41-0.48 0.37-0.51 0.35-0.53 0.32-0.55 0.29-0.57 0.25-0.59 0.21-0.6 0.18-0.62 0.15-0.63 0.1-0.65 0.06-0.66 0.02h-15.24l-0.66-0.02-0.65-0.06-0.63-0.1-0.62-0.15-0.6-0.18-0.59-0.21-0.57-0.25-0.55-0.29-0.53-0.32-0.51-0.35-0.48-0.37-0.46-0.41-0.44-0.44-0.4-0.46-0.38-0.48-0.35-0.51-0.32-0.53-0.28-0.55-0.26-0.57-0.21-0.59-0.18-0.6-0.14-0.62-0.11-0.63-0.06-0.65-0.02-0.66v-28.28h35.24v28.28zm38.89 0-0.06 0.65-0.11 0.63-0.14 0.62-0.18 0.6-0.22 0.59-0.25 0.57-0.28 0.55-0.32 0.53-0.35 0.51-0.38 0.48-0.41 0.46-0.43 0.44-0.46 0.41-0.48 0.37-0.51 0.35-0.53 0.32-0.55 0.29-0.57 0.25-0.59 0.21-0.6 0.18-0.62 0.15-0.64 0.1-0.64 0.06-0.66 0.02h-15.25l-0.65-0.02-0.65-0.06-0.63-0.1-0.62-0.15-0.61-0.18-0.58-0.21-0.57-0.25-0.55-0.29-0.53-0.32-0.51-0.35-0.49-0.37-0.46-0.41-0.43-0.44-0.41-0.46-0.38-0.48-0.35-0.51-0.31-0.53-0.29-0.55-0.25-0.57-0.22-0.59-0.18-0.6-0.14-0.62-0.1-0.63-0.07-0.65-0.02-0.66v-28.28h35.25v28.28z"/>
  <path id="a1gmYGI0Y5" d="m318.36 328.21c0 25.56-20.75 46.31-46.31 46.31s-46.31-20.75-46.31-46.31 20.75-46.31 46.31-46.31 46.31 20.75 46.31 46.31z"/>
  <path id="bzdMsCZsQ" d="m447.21 328.21c0 25.56-20.75 46.31-46.31 46.31s-46.31-20.75-46.31-46.31 20.75-46.31 46.31-46.31 46.31 20.75 46.31 46.31z"/>
  <path id="btKa7YwsY" d="m430 336c0 9.05-7.16 16.39-15.98 16.39-8.83 0-15.99-7.34-15.99-16.39s7.16-16.39 15.99-16.39c8.82 0 15.98 7.34 15.98 16.39z"/>
  <path id="b3bxTnm77" d="m298.69 336c0 9.05-7.16 16.39-15.99 16.39-8.82 0-15.98-7.34-15.98-16.39s7.16-16.39 15.98-16.39c8.83 0 15.99 7.34 15.99 16.39z"/>
 </defs>
 <g transform="translate(-159.13,-95.09)">
  <use width="100%" height="100%" fill="#000000" xlink:href="#aojRDWL06"/>
  <use width="100%" height="100%" fill="#000000" xlink:href="#b3JKVzo7"/>
  <use width="100%" height="100%" fill-opacity="0" stroke="#000000" stroke-width="35" xlink:href="#e8u9y78qGI"/>
  <use width="100%" height="100%" fill="#000000" xlink:href="#g2qmewGzv"/>
  <use width="100%" height="100%" fill-opacity="0" stroke="#000000" stroke-width="35" xlink:href="#a2fa9JBzNx"/>
  <use width="100%" height="100%" fill="#ffffff" xlink:href="#anUWghHLF"/>
  <use width="100%" height="100%" fill="#000000" xlink:href="#c1Wh0HiQVb"/>
  <use width="100%" height="100%" fill="#ffffff" xlink:href="#gfJfzAYq"/>
  <use width="100%" height="100%" fill="#000000" xlink:href="#i2Pp5T6qPh"/>
  <use width="100%" height="100%" fill="#ffffff" xlink:href="#d2BcHrx25g"/>
  <use width="100%" height="100%" fill="#ffffff" xlink:href="#b2O3snVb6S"/>
  <use width="100%" height="100%" fill="#ffffff" xlink:href="#a1gmYGI0Y5"/>
  <use width="100%" height="100%" fill="#ffffff" xlink:href="#bzdMsCZsQ"/>
  <use width="100%" height="100%" fill="#000000" xlink:href="#btKa7YwsY"/>
  <use width="100%" height="100%" fill="#000000" xlink:href="#b3bxTnm77"/>
 </g>
</svg>
